<svg xmlns="http://www.w3.org/2000/svg" viewBox="0 0 551.034 551.034">
  <linearGradient id="a" x1="275.517" x2="275.517" y1="0" y2="551.034" gradientUnits="userSpaceOnUse">
    <stop offset="0" stop-color="#f58529"/>
    <stop offset=".3" stop-color="#dd2a7b"/>
    <stop offset=".6" stop-color="#8134af"/>
    <stop offset="1" stop-color="#515bd4"/>
  </linearGradient>
  <path fill="url(#a)" d="M386.878 0H164.156C73.545 0 0 73.545 0 164.156v222.722c0 90.611 73.545 164.156 164.156 164.156h222.722c90.611 0 164.156-73.545 164.156-164.156V164.156C551.034 73.545 477.489 0 386.878 0z"/>
  <path fill="#fff" d="M275.517 133.6c-78.3 0-141.917 63.617-141.917 141.917S197.217 417.434 275.517 417.434 417.434 353.817 417.434 275.517 353.817 133.6 275.517 133.6zm0 233.8c-50.7 0-91.883-41.183-91.883-91.883s41.183-91.883 91.883-91.883 91.883 41.183 91.883 91.883-41.183 91.883-91.883 91.883zM418.31 119.366a33.2 33.2 0 1 0 33.2 33.2 33.2 33.2 0 0 0-33.2-33.2z"/>
</svg>

